<?xml version="1.0" encoding="UTF-8" standalone="no"?>
<!-- Created with Inkscape (http://www.inkscape.org/) -->

<svg
   width="64"
   height="64"
   viewBox="0 0 64 64.000003"
   version="1.1"
   id="svg1"
   inkscape:version="1.4.3 (0d15f75042, 2025-12-25)"
   sodipodi:docname="application-pdf.svg"
   xml:space="preserve"
   xmlns:inkscape="http://www.inkscape.org/namespaces/inkscape"
   xmlns:sodipodi="http://sodipodi.sourceforge.net/DTD/sodipodi-0.dtd"
   xmlns="http://www.w3.org/2000/svg"
   xmlns:svg="http://www.w3.org/2000/svg"><sodipodi:namedview
     id="namedview1"
     pagecolor="#d1d1d1"
     bordercolor="#000000"
     borderopacity="0.25"
     inkscape:showpageshadow="false"
     inkscape:pageopacity="0.0"
     inkscape:pagecheckerboard="true"
     inkscape:deskcolor="#d1d1d1"
     inkscape:document-units="px"
     showgrid="true"
     inkscape:zoom="12.235725"
     inkscape:cx="26.806748"
     inkscape:cy="32.241653"
     inkscape:current-layer="layer1"><inkscape:grid
       id="grid1"
       units="px"
       originx="0"
       originy="0"
       spacingx="1"
       spacingy="1"
       empcolor="#0099e5"
       empopacity="0.30196078"
       color="#0099e5"
       opacity="0.14901961"
       empspacing="5"
       enabled="true"
       visible="true" /></sodipodi:namedview><defs
     id="defs1" /><g
     inkscape:label="Layer 1"
     inkscape:groupmode="layer"
     id="layer1"><path
       id="rect1"
       style="fill:#e6e6e6;stroke:none;stroke-width:0.999999"
       d="M 10 3 L 10 61 L 54 61 L 54 15 L 42 3 L 10 3 z " /><path
       id="rect3"
       style="fill:#999999;stroke:none;stroke-width:1"
       d="M 42,3.0000005 V 14.999999 h 12 z" /><path
       style="fill:#808080;stroke-width:0.999996"
       d="m 19.665605,48.296218 c -0.545861,-0.170681 -1.116614,-0.702362 -1.285242,-1.19726 -0.215406,-0.632182 -0.03331,-1.574127 0.441863,-2.285708 0.127658,-0.191169 0.214844,-0.375509 0.193747,-0.409644 -0.0211,-0.03413 -0.0118,-0.04565 0.02066,-0.02559 0.03246,0.02006 0.229518,-0.139468 0.437904,-0.354511 0.532669,-0.549684 1.044659,-0.950386 1.798249,-1.407373 1.076537,-0.652829 2.508442,-1.309803 4.08067,-1.872262 0.324411,-0.116057 0.454783,-0.328643 1.536243,-2.505059 1.293525,-2.603187 2.230375,-4.840886 3.11373,-7.437244 l 0.23655,-0.695267 -0.191275,-0.517106 c -0.526862,-1.424348 -1.063324,-3.360267 -1.274088,-4.597776 -0.150256,-0.882242 -0.135653,-2.336689 0.0296,-2.948294 0.399329,-1.477908 1.570061,-2.28761 2.882826,-1.993828 0.568735,0.127279 1.116715,0.680174 1.381321,1.393712 0.559902,1.50985 0.310835,4.319536 -0.678909,7.658649 -0.120517,0.40659 -0.242867,0.822079 -0.271889,0.923309 -0.05936,0.207071 0.11532,0.673906 0.760979,2.033699 0.793718,1.671618 2.476658,4.433814 2.639931,4.332905 0.03021,-0.01867 0.03548,-0.0025 0.0117,0.036 -0.03796,0.06142 0.604933,0.903839 1.28451,1.683168 l 0.197737,0.226763 1.048285,-0.0719 c 1.342878,-0.09211 3.96584,-0.04412 4.827801,0.08834 1.277068,0.196237 2.258287,0.569699 2.900077,1.103804 0.186734,0.155401 0.360042,0.264074 0.385125,0.241494 0.02508,-0.02258 0.02635,-0.0076 0.0028,0.03328 -0.02354,0.04088 0.0091,0.147332 0.07246,0.236561 0.59311,0.834857 0.410702,2.174526 -0.399238,2.932131 -0.507871,0.475053 -1.195495,0.721845 -2.192423,0.786876 -2.081999,0.135807 -4.427945,-0.865684 -6.614261,-2.823646 l -0.670677,-0.600624 -0.452987,0.03977 c -1.936581,0.170022 -5.391956,0.868018 -7.668085,1.548977 -1.444158,0.432054 -1.262653,0.299564 -2.040336,1.48935 -1.796275,2.748147 -3.489993,4.410304 -5.010261,4.9169 -0.426367,0.142077 -1.144429,0.159579 -1.535123,0.03742 z m 1.007489,-1.772328 c 0.314726,-0.09472 0.76407,-0.365216 1.179082,-0.709784 0.512534,-0.425537 2.033688,-2.259238 1.984038,-2.391692 -0.02712,-0.07234 -0.631665,0.209526 -1.404157,0.654696 -1.341593,0.773133 -2.120553,1.508162 -2.31558,2.184995 -0.04638,0.160966 -0.03837,0.21077 0.04357,0.271114 0.126921,0.09346 0.174364,0.0926 0.513044,-0.0093 z m 23.260003,-4.762208 c 0.493557,-0.07141 0.75953,-0.207395 0.872899,-0.446303 0.05131,-0.108116 0.09328,-0.223777 0.09328,-0.257023 0,-0.114915 -0.311412,-0.429978 -0.540523,-0.546862 -0.852429,-0.434877 -3.228059,-0.712069 -4.819075,-0.562296 L 39,39.999998 l 0.184836,0.158148 c 0.465085,0.397927 1.355552,0.922299 2.002885,1.179447 0.987967,0.392463 1.943613,0.540085 2.745376,0.424089 z M 28.33412,39.831942 c 0.02372,0.01466 0.294229,-0.03902 0.601135,-0.119282 0.826814,-0.21623 2.928333,-0.64942 3.840291,-0.791611 0.439116,-0.06847 0.95807,-0.149328 1.153232,-0.179698 0.195163,-0.03036 0.493611,-0.07174 0.663218,-0.09193 l 0.308373,-0.03672 -0.393515,-0.571358 C 34.29042,37.727097 34.011933,37.331404 33.887993,37.162026 33.764054,36.992648 33.66265,36.838573 33.66265,36.819638 c 0,-0.09313 -0.401231,-0.614806 -0.443435,-0.576551 -0.02676,0.02426 -0.03172,0.01443 -0.01104,-0.02185 0.02069,-0.03627 -0.145265,-0.370057 -0.368782,-0.741743 -0.223516,-0.371685 -0.656835,-1.158971 -0.96293,-1.74952 l -0.556535,-1.073729 -0.227302,0.632669 c -0.275455,0.7667 -1.133233,2.910378 -1.377221,3.441825 -0.09707,0.211426 -0.26348,0.58401 -0.369808,0.827963 -0.106328,0.243953 -0.402692,0.862394 -0.658585,1.374312 -0.255894,0.511919 -0.463161,0.951035 -0.460592,0.975814 0.0025,0.02478 0.01815,0.01161 0.03462,-0.02925 0.01647,-0.04086 0.04936,-0.0623 0.07307,-0.04764 z m 2.924678,-13.71686 c 0.295572,-1.537506 0.37751,-2.967393 0.21809,-3.805833 -0.06736,-0.354243 -0.108128,-0.44644 -0.219973,-0.497399 -0.303602,-0.13833 -0.584433,0.18542 -0.721409,0.831659 -0.180909,0.853526 0.0084,2.646855 0.443316,4.199948 0.06478,0.231328 0.126194,0.07156 0.279976,-0.728375 z"
       id="path159" /></g></svg>
