<?xml version="1.0" encoding="UTF-8" standalone="no"?>
<!-- Created with Inkscape (http://www.inkscape.org/) -->

<svg
   width="64"
   height="64"
   viewBox="0 0 64 64.000003"
   version="1.1"
   id="svg1"
   inkscape:version="1.4.3 (0d15f75042, 2025-12-25)"
   sodipodi:docname="text-x-python.svg"
   xml:space="preserve"
   xmlns:inkscape="http://www.inkscape.org/namespaces/inkscape"
   xmlns:sodipodi="http://sodipodi.sourceforge.net/DTD/sodipodi-0.dtd"
   xmlns="http://www.w3.org/2000/svg"
   xmlns:svg="http://www.w3.org/2000/svg"><sodipodi:namedview
     id="namedview1"
     pagecolor="#d1d1d1"
     bordercolor="#000000"
     borderopacity="0.25"
     inkscape:showpageshadow="false"
     inkscape:pageopacity="0.0"
     inkscape:pagecheckerboard="true"
     inkscape:deskcolor="#d1d1d1"
     inkscape:document-units="px"
     showgrid="true"
     inkscape:zoom="4.325982"
     inkscape:cx="27.970528"
     inkscape:cy="20.226621"
     inkscape:current-layer="layer1"><inkscape:grid
       id="grid1"
       units="px"
       originx="0"
       originy="0"
       spacingx="1"
       spacingy="1"
       empcolor="#0099e5"
       empopacity="0.30196078"
       color="#0099e5"
       opacity="0.14901961"
       empspacing="5"
       enabled="true"
       visible="true" /></sodipodi:namedview><defs
     id="defs1" /><g
     inkscape:label="Layer 1"
     inkscape:groupmode="layer"
     id="layer1"><path
       id="rect1"
       style="fill:#e6e6e6;stroke:none;stroke-width:0.999999"
       d="M 10 3 L 10 61 L 54 61 L 54 15 L 42 3 L 10 3 z " /><path
       id="rect3"
       style="fill:#999999;stroke:none;stroke-width:1"
       d="M 42,3.0000005 V 14.999999 h 12 z" /><path
       style="fill:#808080;stroke-width:0.999995"
       d="m 25.680885,48.721891 c -1.219032,-0.244796 -2.218075,-1.269083 -2.452517,-2.514494 -0.045,-0.239018 -0.08012,-1.700578 -0.08012,-3.332745 v -2.907031 l -2.232699,-0.02942 c -2.086673,-0.02749 -2.261135,-0.04091 -2.667389,-0.205146 -0.918163,-0.371193 -1.645415,-1.151748 -1.904497,-2.044092 -0.16321,-0.562127 -0.16321,-10.08074 0,-10.642869 0.258682,-0.890954 0.982388,-1.668621 1.904497,-2.04649 0.424801,-0.174078 0.514075,-0.178698 3.926144,-0.203201 l 3.491463,-0.02507 0.02798,-2.544354 c 0.02657,-2.415796 0.03689,-2.566317 0.204498,-2.97904 0.373387,-0.919457 1.152999,-1.645545 2.044884,-1.904498 0.562131,-0.163208 10.08074,-0.163208 10.642867,0 0.891211,0.258756 1.669416,0.983122 2.046047,1.904498 0.172349,0.421622 0.178466,0.530094 0.203562,3.609408 l 0.02584,3.174723 2.22786,0.02938 c 2.081712,0.02744 2.256379,0.0409 2.662548,0.205101 0.918164,0.371192 1.645413,1.151749 1.904496,2.044094 0.163208,0.562127 0.163208,10.080739 0,10.642868 -0.258679,0.890953 -0.982387,1.668619 -1.904496,2.046489 -0.4248,0.17408 -0.514078,0.178701 -3.926145,0.203203 l -3.491462,0.02507 -0.02754,2.544354 c -0.02546,2.353873 -0.03977,2.574493 -0.191086,2.946959 -0.36481,0.89802 -0.96517,1.505095 -1.847811,1.86848 -0.434322,0.178811 -0.438802,0.178973 -5.334774,0.191742 -2.695048,0.0071 -5.058521,-0.01904 -5.252158,-0.05791 z m 10.472554,-1.458599 c 0.239529,-0.148114 0.477893,-0.386432 0.626009,-0.625888 l 0.23919,-0.386697 0.0229,-2.515703 0.0229,-2.5157 h -3.200296 c -2.210181,0 -3.260921,-0.02762 -3.396255,-0.08928 -0.280109,-0.127626 -0.410607,-0.478481 -0.288033,-0.774403 0.05272,-0.127284 0.154844,-0.260655 0.226931,-0.296378 0.07208,-0.03572 3.441444,-0.08275 7.487451,-0.104482 l 7.35638,-0.03952 0.386832,-0.239189 c 0.239724,-0.148229 0.477794,-0.386318 0.626022,-0.626072 L 46.502665,38.6631 V 33.632071 28.601037 L 46.263476,28.21415 c -0.148127,-0.239592 -0.386394,-0.47794 -0.62585,-0.626072 l -0.386657,-0.239188 -2.192383,-0.02324 -2.192383,-0.02324 -0.03123,1.920053 c -0.02854,1.755372 -0.04619,1.957332 -0.205938,2.354736 -0.351546,0.874552 -0.959465,1.477762 -1.864252,1.84981 -0.3942,0.162095 -0.534689,0.166374 -6.731597,0.205067 l -6.328991,0.03952 -0.386781,0.239188 c -0.239596,0.14817 -0.477802,0.386396 -0.625972,0.626021 l -0.23919,0.386829 -0.02375,5.49909 c -0.01577,3.65043 0.0039,5.594437 0.05861,5.782714 0.135886,0.467889 0.50601,0.901418 0.964749,1.130016 l 0.42135,0.209971 4.946679,-0.02148 4.946676,-0.02148 z m -2.81288,-1.795928 c -0.379602,-0.19142 -0.708291,-0.695721 -0.708291,-1.086712 0,-0.111978 0.08001,-0.362296 0.177825,-0.556247 0.191424,-0.379602 0.695722,-0.70829 1.086714,-0.70829 0.111978,0 0.362294,0.08003 0.556246,0.177825 0.379602,0.191421 0.708293,0.695723 0.708293,1.086712 0,0.390992 -0.328691,0.895292 -0.708293,1.086713 -0.193952,0.09781 -0.444261,0.177827 -0.556246,0.177827 -0.111978,0 -0.362296,-0.08003 -0.556248,-0.177828 z m -10.17596,-8.693702 c 0.0273,-1.703297 0.04873,-1.961367 0.192488,-2.319171 0.359327,-0.89434 0.962302,-1.504654 1.846016,-1.86848 l 0.434684,-0.178959 6.328991,-0.03952 6.328995,-0.03952 0.386779,-0.23919 c 0.239645,-0.148197 0.477772,-0.386363 0.625972,-0.626071 l 0.239191,-0.386881 v -5.663297 -5.663304 l -0.239191,-0.38688 c -0.148256,-0.239799 -0.386272,-0.477814 -0.62607,-0.626071 l -0.386882,-0.239189 h -5.031035 -5.031033 l -0.386881,0.239189 c -0.239627,0.14815 -0.477923,0.386374 -0.626073,0.625887 l -0.239188,0.386696 -0.02291,2.515703 -0.02289,2.5157 h 3.200296 c 2.210179,0 3.26092,0.02763 3.396253,0.08927 0.28011,0.127627 0.410609,0.478484 0.288032,0.774405 -0.05272,0.127283 -0.154842,0.260654 -0.226931,0.296377 -0.07208,0.03573 -3.441444,0.08274 -7.487452,0.104483 l -7.356377,0.03952 -0.386832,0.239191 c -0.239664,0.14819 -0.477831,0.386353 -0.626023,0.626006 l -0.239191,0.386819 -0.02385,4.866831 c -0.01576,3.216314 0.0041,4.963021 0.05861,5.150458 0.135664,0.466561 0.506272,0.901496 0.961419,1.128306 l 0.417924,0.208261 h 2.111212 2.111212 z m 6.382345,-14.067995 c -0.379602,-0.191421 -0.708293,-0.695721 -0.708293,-1.086712 0,-0.111978 0.08003,-0.362297 0.177825,-0.556248 0.191423,-0.379601 0.695724,-0.708291 1.086714,-0.708291 0.390992,0 0.895291,0.328689 1.086714,0.708291 0.09781,0.193951 0.177824,0.444264 0.177824,0.556248 0,0.390991 -0.328689,0.895291 -0.708289,1.086712 -0.193953,0.09781 -0.444264,0.177825 -0.556249,0.177825 -0.111978,0 -0.362294,-0.08002 -0.556246,-0.177825 z"
       id="path1" /></g></svg>
