<?xml version="1.0" encoding="UTF-8" standalone="no"?>
<!-- Created with Inkscape (http://www.inkscape.org/) -->

<svg
   width="64"
   height="64"
   viewBox="0 0 64 64.000003"
   version="1.1"
   id="svg1"
   inkscape:version="1.4.3 (0d15f75042, 2025-12-25)"
   sodipodi:docname="unknown.svg"
   xmlns:inkscape="http://www.inkscape.org/namespaces/inkscape"
   xmlns:sodipodi="http://sodipodi.sourceforge.net/DTD/sodipodi-0.dtd"
   xmlns="http://www.w3.org/2000/svg"
   xmlns:svg="http://www.w3.org/2000/svg">
  <sodipodi:namedview
     id="namedview1"
     pagecolor="#d1d1d1"
     bordercolor="#000000"
     borderopacity="0.25"
     inkscape:showpageshadow="false"
     inkscape:pageopacity="0.0"
     inkscape:pagecheckerboard="true"
     inkscape:deskcolor="#d1d1d1"
     inkscape:document-units="px"
     showgrid="true"
     inkscape:zoom="12.235725"
     inkscape:cx="31.546966"
     inkscape:cy="30.280184"
     inkscape:current-layer="layer1">
    <inkscape:grid
       id="grid1"
       units="px"
       originx="0"
       originy="0"
       spacingx="1"
       spacingy="1"
       empcolor="#0099e5"
       empopacity="0.30196078"
       color="#0099e5"
       opacity="0.14901961"
       empspacing="5"
       enabled="true"
       visible="true" />
  </sodipodi:namedview>
  <defs
     id="defs1" />
  <g
     inkscape:label="Layer 1"
     inkscape:groupmode="layer"
     id="layer1">
    <path
       id="rect1"
       style="fill:#e6e6e6;stroke:none;stroke-width:0.999999"
       d="M 10 3 L 10 61 L 54 61 L 54 15 L 42 3 L 10 3 z " />
    <path
       id="rect3"
       style="fill:#999999;stroke:none;stroke-width:1"
       d="M 42,3.0000005 V 14.999999 h 12 z" />
    <path
       d="m 29.946668,37.90134 q 0,-1.114665 0.205333,-1.906664 0.234666,-0.821333 0.762666,-1.554665 0.557332,-0.733333 1.495998,-1.525332 1.143999,-0.967999 1.759998,-1.613331 0.645333,-0.645333 0.909332,-1.261332 0.264,-0.615999 0.264,-1.495998 0,-1.407999 -0.909332,-2.170664 -0.909333,-0.762666 -2.639997,-0.762666 -1.437332,0 -2.551997,0.381333 -1.114666,0.351999 -2.141331,0.850665 l -0.909333,-2.053331 q 1.173332,-0.615999 2.581331,-1.026665 1.437332,-0.410666 3.197329,-0.410666 2.786664,0 4.311996,1.378665 1.525331,1.378665 1.525331,3.754662 0,1.319999 -0.439999,2.258664 -0.410667,0.909332 -1.202666,1.701332 -0.762665,0.762665 -1.818664,1.642664 -0.967999,0.821333 -1.495999,1.437332 -0.498666,0.615999 -0.674665,1.231999 -0.176,0.586666 -0.176,1.437331 v 0.498666 h -2.053331 z m -0.674666,5.103994 q 0,-1.085332 0.498666,-1.525331 0.527999,-0.44 1.319999,-0.44 0.733332,0 1.261331,0.44 0.528,0.439999 0.528,1.525331 0,1.055999 -0.528,1.525332 -0.527999,0.469333 -1.261331,0.469333 -0.792,0 -1.319999,-0.469333 -0.498666,-0.469333 -0.498666,-1.525332 z"
       id="text1"
       style="font-size:29.3333px;fill:#808080"
       aria-label="?" />
    <path
       d="m 29.946668,37.90134 q 0,-1.114665 0.205333,-1.906664 0.234666,-0.821333 0.762666,-1.554665 0.557332,-0.733333 1.495998,-1.525332 1.143999,-0.967999 1.759998,-1.613331 0.645333,-0.645333 0.909332,-1.261332 0.264,-0.615999 0.264,-1.495998 0,-1.407999 -0.909332,-2.170664 -0.909333,-0.762666 -2.639997,-0.762666 -1.437332,0 -2.551997,0.381333 -1.114666,0.351999 -2.141331,0.850665 l -0.909333,-2.053331 q 1.173332,-0.615999 2.581331,-1.026665 1.437332,-0.410666 3.197329,-0.410666 2.786664,0 4.311996,1.378665 1.525331,1.378665 1.525331,3.754662 0,1.319999 -0.439999,2.258664 -0.410667,0.909332 -1.202666,1.701332 -0.762665,0.762665 -1.818664,1.642664 -0.967999,0.821333 -1.495999,1.437332 -0.498666,0.615999 -0.674665,1.231999 -0.176,0.586666 -0.176,1.437331 v 0.498666 h -2.053331 z m -0.674666,5.103994 q 0,-1.085332 0.498666,-1.525331 0.527999,-0.44 1.319999,-0.44 0.733332,0 1.261331,0.44 0.528,0.439999 0.528,1.525331 0,1.055999 -0.528,1.525332 -0.527999,0.469333 -1.261331,0.469333 -0.792,0 -1.319999,-0.469333 -0.498666,-0.469333 -0.498666,-1.525332 z"
       id="path1"
       style="font-size:29.3333px;fill:#808080"
       aria-label="?" />
  </g>
</svg>
